PathFileType	3	(X/Y/Z)	D:\Jess\PFP\Labelled\PA26\20251029\SRRun01.trc
DataRate	CameraRate	NumFrames	NumMarkers	Units	OrigDataRate	OrigDataStartFrame	OrigNumFrames
250.0	250.0	4	37	mm	250.0	36563	2501
Frame#	Time	C7			T10			CLAV			LSHO			RSHO			LASIS			RASIS			LPSIS			RPSIS			LILCR			RILCR			LGTR			LTHI			LLTHI			LLEP			LMEP			LPSH			LLSH			LDSH			LLMAL			LMMAL			LTOE			L5TH			LHEE			RGTR			RTHI			RLTHI			RLEP			RMEP			RPSH			RLSH			RDSH			RLMAL			RMMAL			RTOE			R5TH			RHEE			
		X1	Y1	Z1	X2	Y2	Z2	X3	Y3	Z3	X4	Y4	Z4	X5	Y5	Z5	X6	Y6	Z6	X7	Y7	Z7	X8	Y8	Z8	X9	Y9	Z9	X10	Y10	Z10	X11	Y11	Z11	X12	Y12	Z12	X13	Y13	Z13	X14	Y14	Z14	X15	Y15	Z15	X16	Y16	Z16	X17	Y17	Z17	X18	Y18	Z18	X19	Y19	Z19	X20	Y20	Z20	X21	Y21	Z21	X22	Y22	Z22	X23	Y23	Z23	X24	Y24	Z24	X25	Y25	Z25	X26	Y26	Z26	X27	Y27	Z27	X28	Y28	Z28	X29	Y29	Z29	X30	Y30	Z30	X31	Y31	Z31	X32	Y32	Z32	X33	Y33	Z33	X34	Y34	Z34	X35	Y35	Z35	X36	Y36	Z36	X37	Y37	Z37	

1564	146.248	1041.897147055669	1360.376743545557	-382.86939515664	960.2695298241846	1165.525977760297	-377.3146043928911	1176.51491280611	1264.551241104813	-375.0870151257178	1112.546304891948	1334.661252720332	-526.2061116021724	1078.89166572599	1340.946872924445	-228.7474933040986	1070.015731259131	905.0084555914012	-475.4601655882999	1073.992138527946	893.9994240382241	-240.4398195741773	901.5242940032203	980.1131248096847	-374.2506526840847	901.1319608395829	973.6398299411923	-325.6822594193978	1015.00489979834	957.9514946301924	-523.2778444250146	1017.683205044675	962.2566233450117	-202.805549973861	1014.090671831198	816.6289033964147	-533.7636388550399	1120.456757959708	699.5994085838379	-453.4775278132774	1031.843942460724	559.677790973116	-495.1869003047165	1057.079649012779	427.5464835887165	-477.3448690217475	nan	nan	nan	1089.236417004678	351.2719356119554	-416.0523070304902	976.0398336481372	251.3440517060171	-469.9183962790253	961.140206819009	156.0363247604254	-404.6291954066951	878.6028655064993	98.71943609731044	-435.8261231772551	nan	nan	nan	1003.528243700543	59.45401840065976	-403.3928101314001	961.2197945441242	34.35987624177741	-449.1455291610807	791.8864667495111	77.23092541394247	-392.0745926078537	990.5702953345741	829.8292001361577	-175.6450243457319	1130.145416264059	684.9922257048912	-261.6069719276555	1065.1573576854	557.4087188144414	-194.9479826672406	1086.542190644651	429.4242685945064	-210.4634971445228	nan	nan	nan	1049.129842706803	360.7993713287537	-265.6350043082718	914.8231002444272	428.1522301587988	-219.4823908284642	832.0357449867544	349.9501023508633	-266.2086971183704	719.5005866336087	379.7149527777679	-255.9721759970726	nan	nan	nan	711.7419629148616	235.2039607374052	-267.7841761870786	676.0164933469104	275.1158360642138	-231.0677926237199	684.8562508004757	438.8198425705232	-313.7515653496769	
1565	146.252	1041.330691106312	1362.472281468616	-383.8298385521251	960.220403938383	1167.276428755323	-378.7876252156659	1176.185249309773	1266.97080402467	-373.7157682904202	1114.270583528335	1336.701612055573	-525.6241228367478	1075.986289307158	1343.489787006912	-229.0903839345	1070.312275987172	906.3335549892677	-475.4014719408618	1073.424851249603	896.6692268720639	-240.1980180427669	901.6128341774504	982.0380058941221	-375.2950667840363	900.9311522608435	975.6707782607385	-326.726326877318	1016.019714425765	959.4422280086743	-523.4694266866595	1016.629924314625	964.5124836796197	-203.2847593880823	1013.380809179727	817.3482460084531	-533.7050081190141	1117.215699080324	697.8530495119113	-453.42504664177	1026.100021938022	560.2030543799219	-495.4585777028447	1048.567805068568	427.2653111721235	-477.4593278216278	nan	nan	nan	1079.546889186013	350.4422070340794	-416.2175288635466	965.7341204705759	251.5455571801182	-470.066519650522	950.3112322373795	156.1538976620187	-404.9914262357242	867.585609978383	99.20821592277325	-436.1892077660767	nan	nan	nan	992.2381342682086	59.29872212657308	-403.4771759281155	949.8755496591561	34.2351247252459	-449.1865092517313	780.6892079902306	78.11195647578728	-392.4474016399068	989.7352765618755	832.3390543657765	-175.7683234836564	1132.131655555844	689.3927598619512	-261.9496066082669	1070.504506241117	561.1262845442097	-195.5062600288256	1094.760954583984	433.5384425622734	-211.5104978798577	nan	nan	nan	1058.592455108928	363.9889172136427	-266.3800492510065	922.8924046387701	428.0626970617483	-219.7956140292206	841.5909794669964	347.7655149634967	-266.5466487151206	728.181121885181	374.5308979794016	-255.7292812769406	nan	nan	nan	725.0281150987721	229.9772634560716	-268.1594724535727	688.1836365930421	268.5070529577361	-231.1095620621586	691.3434203254961	432.8223486662624	-313.0347235010002	
1566	146.256	1040.794647970622	1364.780046164303	-384.7357090073982	960.230170056127	1169.210600896724	-380.3022830286787	1175.903574337654	1269.635715670276	-372.3380589611317	1115.952746520278	1339.023828110876	-524.990646298006	1073.152420531675	1346.19357026117	-229.4336141333612	1070.721430084124	907.8640781430092	-475.3275244877748	1072.944144172702	899.5293596383875	-239.9693701785181	901.8030601674719	984.1436083957639	-376.3236922691044	900.8354928869742	977.8876024028673	-327.7554651671722	1017.254185241947	961.2031673620135	-523.570398884335	1015.650557025636	966.9673543996082	-203.7706732572331	1012.731346057119	818.3103745831135	-533.6354297145626	1113.895206855363	696.4015713233955	-453.2556442356158	1020.27683427266	561.0304046178485	-495.6743787402462	1039.894814422675	427.3895520542154	-477.5026805037656	nan	nan	nan	1069.726580750466	350.0010118992788	-416.3100602180919	955.3597829616042	252.0799634739542	-470.2037056671916	939.4694646249166	156.4980375187634	-405.3522192606059	856.6127589962651	99.84584430779231	-436.5655975238521	nan	nan	nan	980.9767084398283	59.16586534524226	-403.5579064571682	938.5410949705771	34.15694238872477	-449.214353110938	769.5422491538683	79.19567608368763	-392.861222546752	989.0389389290826	835.0638715722991	-175.87676981629	1134.080674843069	694.0496684045099	-262.2516147526634	1075.651117044378	565.1043207395551	-196.1707588294068	1102.790217076809	438.0094736944963	-212.6315900698833	nan	nan	nan	1067.906020889881	367.4593247052184	-267.2153998215198	930.7458725137539	427.9288155284239	-220.1837582104106	851.1478452438618	345.5080626056327	-266.9612601298036	736.9270081527966	369.1000847730857	-255.560047395599	nan	nan	nan	738.5565583773628	224.6479559579629	-268.5240416564055	700.5890991270021	261.740794048712	-231.1787554806475	697.8755727796281	426.414330093055	-312.4325835795286	
1567	146.26	1040.298575628028	1367.286382119149	-385.5887072122996	960.2967519564971	1171.320782270117	-381.8563423700242	1175.671605433263	1272.523751638304	-370.958090418664	1117.59704804258	1341.609435855668	-524.3123701703712	1070.403845783273	1349.040461264266	-229.7784012659411	1071.233688832713	909.5857283457874	-475.2490912597726	1072.557844544914	902.5600056596272	-239.7679474726374	902.0948483275617	986.4186094258869	-377.330944305765	900.848471650976	980.2816089456054	-328.7643366474991	1018.683888189488	963.2167398136323	-523.583832204211	1014.755467542156	969.6192818218631	-204.2567137608013	1012.134763413797	819.5058460617462	-533.556946851071	1110.497336302421	695.2710426474397	-452.9532335953102	1014.370444128011	562.1548149327259	-495.8242979325858	1031.054474752043	427.9214239033226	-477.4812627404793	nan	nan	nan	1059.796420695806	349.9549270228206	-416.344352980375	944.935268550205	252.9496519298619	-470.3326155161977	928.6313134217397	157.0805319398784	-405.7143611794825	845.6960258758273	100.6480248817841	-436.9589964267765	nan	nan	nan	969.7522735336311	59.05410275186539	-403.6407003059883	927.2198427921649	34.12712842691736	-449.2301633383555	758.4600830945085	80.50659639226343	-393.3172858453157	988.4991955472035	838.0001963999646	-175.9740300747357	1135.989106262819	698.9447480252455	-262.5268113354834	1080.586839103038	569.3121624472128	-196.9359882464542	1110.60158122607	442.8012060770389	-213.8229209215681	nan	nan	nan	1077.041597554965	371.1853376840103	-268.152571306202	938.3873119860938	427.7335932611753	-220.6466813725171	860.7112294902026	343.178905053445	-267.4545823988717	745.7583347107402	363.4384256250538	-255.4684396968279	nan	nan	nan	752.3257858811999	219.2468706853887	-268.8758953296569	713.2414284549003	254.8526575405836	-231.2726740511053	704.4869807754774	419.6076306584354	-311.9533194083349	
